Coordinates
version=1
nRows=7
nColumns=40
inDegrees=yes

Units are S.I. units (second, meters, Newtons, ...)
If the header above contains a line with 'inDegrees', this indicates whether rotational values are in degrees (yes) or radians (no).

endheader
time	pelvis_tilt	pelvis_list	pelvis_rotation	pelvis_tx	pelvis_ty	pelvis_tz	hip_flexion_r	hip_adduction_r	hip_rotation_r	knee_angle_r	knee_angle_r_beta	ankle_angle_r	subtalar_angle_r	mtp_angle_r	hip_flexion_l	hip_adduction_l	hip_rotation_l	knee_angle_l	knee_angle_l_beta	ankle_angle_l	subtalar_angle_l	mtp_angle_l	lumbar_extension	lumbar_bending	lumbar_rotation	arm_flex_r	arm_add_r	arm_rot_r	elbow_flex_r	pro_sup_r	wrist_flex_r	wrist_dev_r	arm_flex_l	arm_add_l	arm_rot_l	elbow_flex_l	pro_sup_l	wrist_flex_l	wrist_dev_l
      0.00000000	     16.35188863	      4.66653781	      3.29798071	      0.06293579	      0.96054724	     -0.37770639	     10.12277622	     -5.82398310	     -9.21271229	     13.33178653	      0.23268357	    -12.19815519	      0.00000000	      0.00000000	    -29.35447392	      7.24522758	      5.38495045	      7.07493192	      0.12348086	     -2.74152258	      0.00000000	      0.00000000	    -31.79725615	     -2.78904877	     -8.89028517	      2.27294994	    -13.43084101	      5.76087070	     41.35835411	     74.28171959	      0.00000000	      0.00000000	     11.84885068	    -26.69242291	     23.05361592	     56.61642099	     70.77629674	      0.00000000	      0.00000000
      0.00400000	     16.10938190	      4.76051646	      3.29907907	      0.06780996	      0.95911488	     -0.37741148	     10.71394582	     -5.80351979	     -9.24400475	     12.84321202	      0.22415634	    -12.18309199	      0.00000000	      0.00000000	    -29.35698181	      7.29822348	      5.35812177	      7.23217062	      0.12622519	     -2.59897066	      0.00000000	      0.00000000	    -31.61027846	     -2.89063297	     -8.98795409	      2.23833457	    -13.34158221	      5.67772965	     41.39920178	     74.23757222	      0.00000000	      0.00000000	     11.95851087	    -26.76435907	     23.04994647	     56.69369172	     70.78773203	      0.00000000	      0.00000000
      0.00800000	     15.88715633	      4.90790204	      3.32239114	      0.07248959	      0.95774440	     -0.37737876	     11.06666512	     -5.79893250	     -8.75407788	     11.90648013	      0.20780728	    -12.38338639	      0.00000000	      0.00000000	    -29.37308277	      7.41669874	      5.49972455	      7.43365690	      0.12974179	     -2.17889867	      0.00000000	      0.00000000	    -31.46632628	     -3.01097742	     -9.08997909	      2.33496188	    -13.22257658	      5.55967879	     41.20509636	     74.14053151	      0.00000000	      0.00000000	     12.16729268	    -26.81229492	     23.11309475	     56.67842328	     70.80756013	      0.00000000	      0.00000000
      0.01200000	     15.78289716	      4.85544834	      3.34491450	      0.07717423	      0.95658296	     -0.37696708	     11.24343344	     -5.53869673	     -8.35295918	     10.87453886	      0.18979651	    -12.95810990	      0.00000000	      0.00000000	    -29.39528007	      7.29922969	      5.36737339	      7.81865120	      0.13646121	     -1.89912699	      0.00000000	      0.00000000	    -31.44947677	     -2.95381569	     -9.07135635	      2.37341151	    -13.12972722	      5.40685184	     41.16674765	     73.97719076	      0.00000000	      0.00000000	     12.39629451	    -26.87012294	     23.19449580	     56.66654746	     70.82203923	      0.00000000	      0.00000000
      0.01600000	     15.58607816	      4.95261766	      3.32965735	      0.08208595	      0.95521343	     -0.37680827	     11.73703417	     -5.52466333	     -8.35408435	     10.41869494	      0.18184053	    -12.87031321	      0.00000000	      0.00000000	    -29.40221095	      7.36531666	      5.28869633	      8.06019224	      0.14067689	     -1.77567186	      0.00000000	      0.00000000	    -31.31313079	     -3.04705342	     -9.14774932	      2.38012591	    -13.07768324	      5.36486178	     41.14525919	     73.90243426	      0.00000000	      0.00000000	     12.48875085	    -26.91714012	     23.20413695	     56.72383109	     70.81927544	      0.00000000	      0.00000000
      0.02000000	     15.38301832	      5.03900540	      3.33953622	      0.08704635	      0.95383821	     -0.37666562	     12.15851128	     -5.47739620	     -8.13873639	      9.87459984	      0.17234428	    -12.95592068	      0.00000000	      0.00000000	    -29.39042992	      7.42373520	      5.32068879	      8.36836759	      0.14605557	     -1.55538176	      0.00000000	      0.00000000	    -31.15507617	     -3.11281944	     -9.23619393	      2.33348881	    -12.99730795	      5.24189018	     41.21293521	     73.81738967	      0.00000000	      0.00000000	     12.58669624	    -26.97783551	     23.18081615	     56.71517835	     70.82270791	      0.00000000	      0.00000000
      0.02400000	     15.26180402	      5.07363079	      3.29607188	      0.09189616	      0.95257108	     -0.37640710	     12.62785297	     -5.39512611	     -8.18586599	      9.64997009	      0.16842375	    -12.91457351	      0.00000000	      0.00000000	    -29.48393748	      7.42778250	      5.33570915	      8.55041525	      0.14923290	     -1.55024038	      0.00000000	      0.00000000	    -31.11527416	     -3.14438272	     -9.25978900	      2.38182423	    -12.98925517	      5.21197585	     41.22181680	     73.79516135	      0.00000000	      0.00000000	     12.72906663	    -27.02252357	     23.14601164	     56.74233019	     70.82543211	      0.00000000	      0.00000000
